<svg xmlns="http://www.w3.org/2000/svg" fill="none" viewBox="0 0 20 20">
  <path stroke="currentColor" stroke-linecap="round" stroke-linejoin="round" stroke-width="1.66667" d="M7.5 17.5v-6.1667c0-.4667 0-.7.09083-.8783.07989-.1568.20738-.2843.36418-.3642.17826-.09081.41161-.09081.87832-.09081h2.33337c.4667 0 .7 0 .8783.09081.1568.0799.2843.2074.3642.3642.0908.1783.0908.4116.0908.8783V17.5M9.18141 2.30333 3.52949 6.69927c-.37781.29385-.56671.44078-.7028.62478-.12055.16299-.21036.3466-.265.54183C2.5 8.08627 2.5 8.32558 2.5 8.80421v6.02909c0 .9334 0 1.4002.18166 1.7567.15978.3136.41475.5685.72836.7283.35652.1817.82323.1817 1.75665.1817h9.66663c.9335 0 1.4002 0 1.7567-.1817.3136-.1598.5686-.4147.7283-.7283.1817-.3565.1817-.8233.1817-1.7567V8.80421c0-.47863 0-.71794-.0617-.93833-.0546-.19523-.1444-.37884-.265-.54183-.1361-.184-.325-.33093-.7028-.62478l-5.6519-4.39594c-.2928-.22771-.4392-.34156-.6008-.38533-.1426-.03862-.29296-.03862-.43559 0-.16164.04377-.30803.15762-.6008.38533Z"/>
</svg>
