<svg xmlns="http://www.w3.org/2000/svg" fill="none" viewBox="0 0 44 44">
  <path fill="#099250" d="M25.8001 33.7873c-3.5-1.3-7.1-1.5-10.4-.6-2.3.6-4.5 1.8-6.49998 3.3l-1.40003 1.2-.39999.4.89999.8c.1 0 .10001.1.20001.2.2.2.40002.3.70002.5l.59997.4.60001-.5c.1-.1.3-.3.5-.4 1.8-1.5 3.8-2.5 5.9-3 2.7-.7 5.6-.6 8.5.5 2.4.9 7.3 2 13.2-.5l.2-.1.3-.3c0-.1.1-.1.2-.2.5-.6 1-1.2 1.4-1.9l2-3.1-3.2 1.8c-4.7 2.6-9 3.1-13.3 1.5ZM12.1 22.9876c2.7-.7 5.6-.6 8.5.5 3.2 1.2 11.4 2.9 20.6-5.4l1.5-1.5.1-.1.4-.4-.2-.5c-.1-.4-.3-.9-.5-1.4l-.5-1.4-1 1c-.1.2-.3.3-.5.5-4.4 4.5-11.2 9.1-19 6.3-3.5-1.3-7.1-1.5-10.4-.6-3.19999.9-6 2.6-8.6 5v-.1l-1.5 1.6c0 .1-.099982.1-.199982.2l-.300018.3.100006.4c.1.5.299994 1 .399994 1.5l.60001 1.6 1-1.3c.1-.2.29999-.3.39999-.5 2.1-1.9 5.00001-4.6 9.1-5.7Z"/>
  <path fill="#099250" d="M2.40002 21.1874c2.3-2.4 4.89999-3.9 7.69998-4.7 2.7-.7 5.6-.6 8.5.5 9 3.3 16.8-2.1 20.2-5l1.3-1.3.5-.4-.4-.60002c-.3-.3-.5-.70001-.8-1.10001l-.6-.80002-.7.70002c-.1.1-.3.29999-.4.39999C33.5 12.8874 27 16.9874 19.6 14.1874c-3.5-1.3-7.1-1.5-10.39999-.6-2.1.6-4.1 1.6-6.1 2.9L1 18.1874l-.5.5-.199982.2v.3c-.1.7-.100012 1.4-.200012 2L0 23.6874l1.70001-1.8c.2-.2.40001-.5.70001-.7ZM28.6999 40.5875l-.2.6.2-.6c-.3-.1-.5-.2-.8-.3-3.5-1.3-7.1-1.5-10.4-.6-.7.2-1.4.4-2.1.7l-2.4 1.1-.6.3 2 .7 1.8.6.3.1.3-.1c.3-.1.6-.3.9-.3.2 0 .4-.1.6-.2 2.4-.6 5-.6 7.8.3.3.1.5.2.8.3l.5.2.3-.1c.7-.2 1.5-.4 2.1-.7l2.8-1-2.9-.7c-.3-.1-.7-.2-1-.3ZM44 19.8875l-1.5 1.5c-.2.2-.3999.4-.5999.6-4.1 3.9-10.7001 8.0999-18.1001 5.2999-3.5-1.3-7.0999-1.4999-10.3999-.5999-3.1.9-5.90007 2.5-8.40007 4.9l-1.29999 1.4-.39999.5.39999.6c.3.4.50001.7.70001 1.1l.59998.9.70001-.9c.1-.1.3-.3001.4-.4001 2.4-2.6 4.99996-4.2 7.99996-5 2.7-.7 5.6-.6 8.5.5 2.5.9 5.1 1.2001 7.7.9001 4.6-.5 9.2-3.1 12.6001-6 .2-.2.3999-.3.5999-.5l.3-.3v-.3c0-.6.1001-1.3.1001-1.9l.0999-2.3Z"/>
  <path fill="#099250" d="m6.00018 10.6877-.29998-.6001.29998.6001c.6-.3 1.30003-.5001 1.90003-.70006 2.69999-.7 5.59999-.6 8.49999.49996 1.9.7 3.8 1 5.9 1 4.2 0 8.4-1.49995 12.3-4.39995l1.5-1.20002.5-.39999-.9-.70001c-.3-.3-.7-.59999-1.1-.79999l-.6-.39999-.5.39999c-.2.1-.3.29999-.5.39999-5.3 4-10.6 5.10002-15.6 3.20002-3.6-1.3-7.2-1.6-10.80001-.5-.3.1-.6.19998-1 .29998l-.19998.10001-.30002.29999c0 .1-.09998.10001-.19998.20001-.4.6-.90002 1.10001-1.30002 1.70001L1.7002 12.5876l3.1-1.6c.5 0 .89998-.1999 1.19998-.2999ZM14.2 3.88748l.3.10001c1.3.5 3.3 1 5.8 1 2.6 0 5.1-.60001 7.6-1.60001l3.1-1.5-2.1-.69998c-.6-.2-1.2-.4-1.9-.5h-.3l-.3.099976c-.3.1-.6.300024-.9.400024-3 1.1-6 1.3-8.9.5-.3-.1-.6-.20002-.9-.30002l-.3-.1-.3.1c-.6.2-1.2.40001-1.8.70001l-2.3 1 2.4.69999c.2-.1.5 0 .8.1Z"/>
</svg>
