<svg xmlns="http://www.w3.org/2000/svg" fill="none" viewBox="0 0 20 20">
  <g clip-path="url(#a)">
    <path stroke="currentColor" stroke-linecap="round" stroke-linejoin="round" stroke-width="1.66667" d="M6.66675 6.66667V4.33334c0-.93342 0-1.40013.18165-1.75665.15979-.31361.41476-.56857.72836-.72836.35652-.18166.82323-.18166 1.75665-.18166h6.33329c.9335 0 1.4002 0 1.7567.18166.3136.15979.5686.41475.7284.72836.1816.35652.1816.82323.1816 1.75665v6.33336c0 .9334 0 1.4001-.1816 1.7566-.1598.3136-.4148.5686-.7284.7284-.3565.1816-.8232.1816-1.7567.1816h-2.3333m-8.99999 5h6.33329c.9335 0 1.4002 0 1.7567-.1816.3136-.1598.5686-.4148.7284-.7284.1816-.3565.1816-.8232.1816-1.7566V9.33334c0-.93342 0-1.40013-.1816-1.75665-.1598-.31361-.4148-.56857-.7284-.72836-.3565-.18166-.8232-.18166-1.7567-.18166H4.33341c-.93342 0-1.40013 0-1.75665.18166-.3136.15979-.56857.41475-.72836.72836-.18165.35652-.18165.82323-.18165 1.75665v6.33336c0 .9334 0 1.4001.18165 1.7566.15979.3136.41476.5686.72836.7284.35652.1816.82323.1816 1.75665.1816Z"/>
  </g>
  <defs>
    <clipPath id="a">
      <path d="M0 0h20v20H0z"/>
    </clipPath>
  </defs>
</svg>
