<svg xmlns="http://www.w3.org/2000/svg" fill="none" viewBox="0 0 20 20">
  <path stroke="currentColor" stroke-linecap="round" stroke-linejoin="round" stroke-width="1.66667" d="M13.3333 5.00001v-.66667c0-.93342 0-1.40013-.1816-1.75665-.1598-.31361-.4148-.56857-.7284-.72836-.3565-.18166-.8232-.18166-1.7566-.18166H9.33333c-.93342 0-1.40013 0-1.75665.18166-.3136.15979-.56857.41475-.72836.72836-.18165.35652-.18165.82323-.18165 1.75665v.66667m1.66666 4.58333V13.75m3.33337-4.16666V13.75M2.5 5.00001h15m-1.6667 0v9.33329c0 1.4002 0 2.1002-.2725 2.635-.2396.4704-.6221.8529-1.0925 1.0926-.5348.2724-1.2348.2724-2.635.2724H8.16667c-1.40013 0-2.1002 0-2.63498-.2724-.4704-.2397-.85286-.6222-1.09254-1.0926-.27248-.5348-.27248-1.2348-.27248-2.635V5.00001"/>
</svg>
